<mxfile host="Electron" agent="Mozilla/5.0 (Windows NT 10.0; Win64; x64) AppleWebKit/537.36 (KHTML, like Gecko) draw.io/25.0.2 Chrome/128.0.6613.186 Electron/32.2.5 Safari/537.36" version="25.0.2">
  <diagram id="C5RBs43oDa-KdzZeNtuy" name="Page-1">
    <mxGraphModel dx="5101" dy="4041" grid="1" gridSize="10" guides="1" tooltips="1" connect="1" arrows="1" fold="1" page="1" pageScale="1" pageWidth="827" pageHeight="1169" math="0" shadow="0">
      <root>
        <mxCell id="WIyWlLk6GJQsqaUBKTNV-0" />
        <mxCell id="WIyWlLk6GJQsqaUBKTNV-1" parent="WIyWlLk6GJQsqaUBKTNV-0" />
        <mxCell id="6CmqtewHcJsue7-G7mei-127" style="edgeStyle=orthogonalEdgeStyle;rounded=0;orthogonalLoop=1;jettySize=auto;html=1;" parent="WIyWlLk6GJQsqaUBKTNV-1" source="6CmqtewHcJsue7-G7mei-0" target="6CmqtewHcJsue7-G7mei-63" edge="1">
          <mxGeometry relative="1" as="geometry">
            <Array as="points">
              <mxPoint x="-960" y="-420" />
              <mxPoint x="373" y="-420" />
            </Array>
          </mxGeometry>
        </mxCell>
        <mxCell id="6CmqtewHcJsue7-G7mei-128" style="edgeStyle=orthogonalEdgeStyle;rounded=0;orthogonalLoop=1;jettySize=auto;html=1;" parent="WIyWlLk6GJQsqaUBKTNV-1" source="6CmqtewHcJsue7-G7mei-0" target="6CmqtewHcJsue7-G7mei-64" edge="1">
          <mxGeometry relative="1" as="geometry">
            <Array as="points">
              <mxPoint x="-960" y="-430" />
              <mxPoint x="742" y="-430" />
            </Array>
          </mxGeometry>
        </mxCell>
        <mxCell id="6CmqtewHcJsue7-G7mei-0" value="&lt;span style=&quot;font-size: 24px;&quot;&gt;Étudiant&amp;nbsp;&lt;/span&gt;" style="shape=umlActor;verticalLabelPosition=bottom;verticalAlign=top;html=1;outlineConnect=0;" parent="WIyWlLk6GJQsqaUBKTNV-1" vertex="1">
          <mxGeometry x="-1040" y="-2240" width="160" height="340" as="geometry" />
        </mxCell>
        <mxCell id="6CmqtewHcJsue7-G7mei-129" style="edgeStyle=orthogonalEdgeStyle;rounded=0;orthogonalLoop=1;jettySize=auto;html=1;entryX=1;entryY=0.5;entryDx=0;entryDy=0;" parent="WIyWlLk6GJQsqaUBKTNV-1" source="6CmqtewHcJsue7-G7mei-59" target="6CmqtewHcJsue7-G7mei-64" edge="1">
          <mxGeometry relative="1" as="geometry">
            <Array as="points">
              <mxPoint x="2300" y="-2070" />
              <mxPoint x="2300" y="-470" />
              <mxPoint x="852" y="-470" />
            </Array>
          </mxGeometry>
        </mxCell>
        <mxCell id="6CmqtewHcJsue7-G7mei-130" style="edgeStyle=orthogonalEdgeStyle;rounded=0;orthogonalLoop=1;jettySize=auto;html=1;" parent="WIyWlLk6GJQsqaUBKTNV-1" source="6CmqtewHcJsue7-G7mei-59" target="6CmqtewHcJsue7-G7mei-63" edge="1">
          <mxGeometry relative="1" as="geometry">
            <Array as="points">
              <mxPoint x="2330" y="-2070" />
              <mxPoint x="2330" y="-430" />
              <mxPoint x="373" y="-430" />
            </Array>
          </mxGeometry>
        </mxCell>
        <mxCell id="6CmqtewHcJsue7-G7mei-59" value="&lt;font style=&quot;font-size: 24px;&quot;&gt;Admin&lt;/font&gt;" style="shape=umlActor;verticalLabelPosition=bottom;verticalAlign=top;html=1;outlineConnect=0;" parent="WIyWlLk6GJQsqaUBKTNV-1" vertex="1">
          <mxGeometry x="2020" y="-2240" width="160" height="340" as="geometry" />
        </mxCell>
        <mxCell id="6CmqtewHcJsue7-G7mei-62" value="" style="swimlane;startSize=0;" parent="WIyWlLk6GJQsqaUBKTNV-1" vertex="1">
          <mxGeometry x="-817" y="-2328" width="2727" height="1928" as="geometry" />
        </mxCell>
        <object label="&lt;font style=&quot;font-size: 24px;&quot;&gt;Forum&lt;/font&gt;" id="6CmqtewHcJsue7-G7mei-63">
          <mxCell style="ellipse;whiteSpace=wrap;html=1;" parent="6CmqtewHcJsue7-G7mei-62" vertex="1">
            <mxGeometry x="1058.5" y="1698" width="263" height="162" as="geometry" />
          </mxCell>
        </object>
        <object label="&lt;span style=&quot;font-size: 24px;&quot;&gt;Événements&amp;nbsp;&lt;/span&gt;" id="6CmqtewHcJsue7-G7mei-64">
          <mxCell style="ellipse;whiteSpace=wrap;html=1;" parent="6CmqtewHcJsue7-G7mei-62" vertex="1">
            <mxGeometry x="1448.5" y="1698" width="220" height="162" as="geometry" />
          </mxCell>
        </object>
        <object label="&lt;font style=&quot;font-size: 24px;&quot;&gt;Ajouter ou exclure un étudiant&lt;/font&gt;" id="6CmqtewHcJsue7-G7mei-60">
          <mxCell style="ellipse;whiteSpace=wrap;html=1;" parent="6CmqtewHcJsue7-G7mei-62" vertex="1">
            <mxGeometry x="2417" y="58" width="223.56" height="162" as="geometry" />
          </mxCell>
        </object>
        <object label="&lt;span style=&quot;font-size: 24px;&quot;&gt;Supprimer les mots de passe&lt;/span&gt;" id="6CmqtewHcJsue7-G7mei-61">
          <mxCell style="ellipse;whiteSpace=wrap;html=1;" parent="6CmqtewHcJsue7-G7mei-62" vertex="1">
            <mxGeometry x="2417" y="258" width="233.56" height="172" as="geometry" />
          </mxCell>
        </object>
        <object label="&lt;font style=&quot;font-size: 24px;&quot;&gt;Créer des moudules ou cours&lt;/font&gt;" id="6CmqtewHcJsue7-G7mei-68">
          <mxCell style="ellipse;whiteSpace=wrap;html=1;" parent="6CmqtewHcJsue7-G7mei-62" vertex="1">
            <mxGeometry x="247" y="1360" width="180" height="150" as="geometry" />
          </mxCell>
        </object>
        <object label="&lt;font style=&quot;font-size: 24px;&quot;&gt;Créer des Évaluations&amp;nbsp;&lt;/font&gt;" id="6CmqtewHcJsue7-G7mei-69">
          <mxCell style="ellipse;whiteSpace=wrap;html=1;" parent="6CmqtewHcJsue7-G7mei-62" vertex="1">
            <mxGeometry x="247" y="1570" width="180" height="150" as="geometry" />
          </mxCell>
        </object>
        <object label="&lt;span style=&quot;font-size: 24px;&quot;&gt;Correction des évaluations&amp;nbsp;&lt;/span&gt;" id="6CmqtewHcJsue7-G7mei-70">
          <mxCell style="ellipse;whiteSpace=wrap;html=1;" parent="6CmqtewHcJsue7-G7mei-62" vertex="1">
            <mxGeometry x="237" y="1160" width="190" height="140" as="geometry" />
          </mxCell>
        </object>
        <object label="&lt;span style=&quot;font-size: 24px;&quot;&gt;Valider des dossiers&lt;/span&gt;" id="6CmqtewHcJsue7-G7mei-71">
          <mxCell style="ellipse;whiteSpace=wrap;html=1;" parent="6CmqtewHcJsue7-G7mei-62" vertex="1">
            <mxGeometry x="227" y="518" width="190" height="140" as="geometry" />
          </mxCell>
        </object>
        <object label="&lt;span style=&quot;font-size: 24px;&quot;&gt;Exclures des étudiants&lt;/span&gt;" id="6CmqtewHcJsue7-G7mei-72">
          <mxCell style="ellipse;whiteSpace=wrap;html=1;" parent="6CmqtewHcJsue7-G7mei-62" vertex="1">
            <mxGeometry x="227" y="778" width="190" height="140" as="geometry" />
          </mxCell>
        </object>
        <object label="&lt;span style=&quot;font-size: 24px;&quot;&gt;Rapports&lt;/span&gt;" id="6CmqtewHcJsue7-G7mei-74">
          <mxCell style="ellipse;whiteSpace=wrap;html=1;" parent="6CmqtewHcJsue7-G7mei-62" vertex="1">
            <mxGeometry x="2357" y="1621" width="190" height="140" as="geometry" />
          </mxCell>
        </object>
        <object label="&lt;span style=&quot;font-size: 24px;&quot;&gt;Paiements&lt;/span&gt;&lt;span style=&quot;color: rgba(0, 0, 0, 0); font-family: monospace; font-size: 0px; text-align: start; text-wrap: nowrap;&quot;&gt;%3CmxGraphModel%3E%3Croot%3E%3CmxCell%20id%3D%220%22%2F%3E%3CmxCell%20id%3D%221%22%20parent%3D%220%22%2F%3E%3Cobject%20label%3D%22%26lt%3Bspan%20style%3D%26quot%3Bfont-size%3A%2024px%3B%26quot%3B%26gt%3BRapports%26lt%3B%2Fspan%26gt%3B%22%20id%3D%222%22%3E%3CmxCell%20style%3D%22ellipse%3BwhiteSpace%3Dwrap%3Bhtml%3D1%3B%22%20vertex%3D%221%22%20parent%3D%221%22%3E%3CmxGeometry%20x%3D%221220%22%20y%3D%22-1030%22%20width%3D%22190%22%20height%3D%22140%22%20as%3D%22geometry%22%2F%3E%3C%2FmxCell%3E%3C%2Fobject%3E%3C%2Froot%3E%3C%2FmxGraphModel%3E&lt;/span&gt;" id="6CmqtewHcJsue7-G7mei-87">
          <mxCell style="ellipse;whiteSpace=wrap;html=1;" parent="6CmqtewHcJsue7-G7mei-62" vertex="1">
            <mxGeometry x="2357" y="1449" width="190" height="140" as="geometry" />
          </mxCell>
        </object>
        <object label="&lt;span style=&quot;font-size: 24px;&quot;&gt;Abonnements&amp;nbsp;&lt;/span&gt;" id="6CmqtewHcJsue7-G7mei-88">
          <mxCell style="ellipse;whiteSpace=wrap;html=1;" parent="6CmqtewHcJsue7-G7mei-62" vertex="1">
            <mxGeometry x="2357" y="1109" width="190" height="140" as="geometry" />
          </mxCell>
        </object>
        <object label="&lt;span style=&quot;font-size: 24px;&quot;&gt;Statistiques&amp;nbsp;&lt;/span&gt;&lt;span style=&quot;color: rgba(0, 0, 0, 0); font-family: monospace; font-size: 0px; text-align: start; text-wrap: nowrap;&quot;&gt;%3CmxGraphModel%3E%3Croot%3E%3CmxCell%20id%3D%220%22%2F%3E%3CmxCell%20id%3D%221%22%20parent%3D%220%22%2F%3E%3Cobject%20label%3D%22%26lt%3Bspan%20style%3D%26quot%3Bfont-size%3A%2024px%3B%26quot%3B%26gt%3BRapports%26lt%3B%2Fspan%26gt%3B%22%20id%3D%222%22%3E%3CmxCell%20style%3D%22ellipse%3BwhiteSpace%3Dwrap%3Bhtml%3D1%3B%22%20vertex%3D%221%22%20parent%3D%221%22%3E%3CmxGeometry%20x%3D%221220%22%20y%3D%22-1030%22%20width%3D%22190%22%20height%3D%22140%22%20as%3D%22geometry%22%2F%3E%3C%2FmxCell%3E%3C%2Fobject%3E%3C%2Froot%3E%3C%2FmxGraphModel%3E&lt;/span&gt;" id="6CmqtewHcJsue7-G7mei-86">
          <mxCell style="ellipse;whiteSpace=wrap;html=1;" parent="6CmqtewHcJsue7-G7mei-62" vertex="1">
            <mxGeometry x="2357" y="1279" width="190" height="140" as="geometry" />
          </mxCell>
        </object>
        <object label="&lt;span style=&quot;font-size: 24px;&quot;&gt;Selection du module et du cours&lt;/span&gt;" id="6CmqtewHcJsue7-G7mei-89">
          <mxCell style="ellipse;whiteSpace=wrap;html=1;" parent="6CmqtewHcJsue7-G7mei-62" vertex="1">
            <mxGeometry x="277" y="38" width="166" height="132" as="geometry" />
          </mxCell>
        </object>
        <object label="&lt;span style=&quot;font-size: 24px;&quot;&gt;Évaluation&amp;nbsp;&lt;/span&gt;" id="6CmqtewHcJsue7-G7mei-90">
          <mxCell style="ellipse;whiteSpace=wrap;html=1;" parent="6CmqtewHcJsue7-G7mei-62" vertex="1">
            <mxGeometry x="297" y="288" width="163" height="122" as="geometry" />
          </mxCell>
        </object>
        <mxCell id="6CmqtewHcJsue7-G7mei-125" style="edgeStyle=orthogonalEdgeStyle;rounded=0;orthogonalLoop=1;jettySize=auto;html=1;" parent="WIyWlLk6GJQsqaUBKTNV-1" source="6CmqtewHcJsue7-G7mei-65" target="6CmqtewHcJsue7-G7mei-63" edge="1">
          <mxGeometry relative="1" as="geometry">
            <Array as="points">
              <mxPoint x="-970" y="-470" />
            </Array>
          </mxGeometry>
        </mxCell>
        <mxCell id="6CmqtewHcJsue7-G7mei-126" style="edgeStyle=orthogonalEdgeStyle;rounded=0;orthogonalLoop=1;jettySize=auto;html=1;entryX=0;entryY=1;entryDx=0;entryDy=0;" parent="WIyWlLk6GJQsqaUBKTNV-1" source="6CmqtewHcJsue7-G7mei-65" target="6CmqtewHcJsue7-G7mei-64" edge="1">
          <mxGeometry relative="1" as="geometry">
            <Array as="points">
              <mxPoint x="-970" y="-440" />
              <mxPoint x="664" y="-440" />
            </Array>
          </mxGeometry>
        </mxCell>
        <mxCell id="6CmqtewHcJsue7-G7mei-65" value="&lt;font style=&quot;font-size: 24px;&quot;&gt;Directeur&lt;/font&gt;" style="shape=umlActor;verticalLabelPosition=bottom;verticalAlign=top;html=1;outlineConnect=0;" parent="WIyWlLk6GJQsqaUBKTNV-1" vertex="1">
          <mxGeometry x="-1050" y="-1690" width="160" height="340" as="geometry" />
        </mxCell>
        <mxCell id="6CmqtewHcJsue7-G7mei-121" style="edgeStyle=orthogonalEdgeStyle;rounded=0;orthogonalLoop=1;jettySize=auto;html=1;" parent="WIyWlLk6GJQsqaUBKTNV-1" source="6CmqtewHcJsue7-G7mei-66" target="6CmqtewHcJsue7-G7mei-63" edge="1">
          <mxGeometry relative="1" as="geometry">
            <Array as="points">
              <mxPoint x="-970" y="-510" />
            </Array>
          </mxGeometry>
        </mxCell>
        <mxCell id="6CmqtewHcJsue7-G7mei-124" style="edgeStyle=orthogonalEdgeStyle;rounded=0;orthogonalLoop=1;jettySize=auto;html=1;" parent="WIyWlLk6GJQsqaUBKTNV-1" source="6CmqtewHcJsue7-G7mei-66" target="6CmqtewHcJsue7-G7mei-64" edge="1">
          <mxGeometry relative="1" as="geometry">
            <Array as="points">
              <mxPoint x="-970" y="-450" />
              <mxPoint x="742" y="-450" />
            </Array>
          </mxGeometry>
        </mxCell>
        <mxCell id="6CmqtewHcJsue7-G7mei-66" value="&lt;span style=&quot;font-size: 24px;&quot;&gt;Enseignants&lt;/span&gt;" style="shape=umlActor;verticalLabelPosition=bottom;verticalAlign=top;html=1;outlineConnect=0;" parent="WIyWlLk6GJQsqaUBKTNV-1" vertex="1">
          <mxGeometry x="-1050" y="-1120" width="160" height="340" as="geometry" />
        </mxCell>
        <mxCell id="6CmqtewHcJsue7-G7mei-67" value="&lt;span style=&quot;font-size: 24px;&quot;&gt;Comptable&lt;/span&gt;" style="shape=umlActor;verticalLabelPosition=bottom;verticalAlign=top;html=1;outlineConnect=0;" parent="WIyWlLk6GJQsqaUBKTNV-1" vertex="1">
          <mxGeometry x="1940" y="-1120" width="160" height="340" as="geometry" />
        </mxCell>
        <mxCell id="6CmqtewHcJsue7-G7mei-108" value="Include" style="endArrow=open;endSize=12;dashed=1;html=1;rounded=0;exitX=1;exitY=0.3333333333333333;exitDx=0;exitDy=0;exitPerimeter=0;" parent="WIyWlLk6GJQsqaUBKTNV-1" source="6CmqtewHcJsue7-G7mei-0" target="6CmqtewHcJsue7-G7mei-89" edge="1">
          <mxGeometry width="160" relative="1" as="geometry">
            <mxPoint x="-810" y="-2180" as="sourcePoint" />
            <mxPoint x="-650" y="-2180" as="targetPoint" />
          </mxGeometry>
        </mxCell>
        <mxCell id="6CmqtewHcJsue7-G7mei-109" value="Include" style="endArrow=open;endSize=12;dashed=1;html=1;rounded=0;exitX=1;exitY=0.3333333333333333;exitDx=0;exitDy=0;exitPerimeter=0;entryX=0;entryY=0.5;entryDx=0;entryDy=0;" parent="WIyWlLk6GJQsqaUBKTNV-1" source="6CmqtewHcJsue7-G7mei-0" target="6CmqtewHcJsue7-G7mei-90" edge="1">
          <mxGeometry width="160" relative="1" as="geometry">
            <mxPoint x="-870" y="-2117" as="sourcePoint" />
            <mxPoint x="-527" y="-2196" as="targetPoint" />
          </mxGeometry>
        </mxCell>
        <mxCell id="6CmqtewHcJsue7-G7mei-110" value="Include" style="endArrow=open;endSize=12;dashed=1;html=1;rounded=0;exitX=1;exitY=0.3333333333333333;exitDx=0;exitDy=0;exitPerimeter=0;entryX=0;entryY=0.5;entryDx=0;entryDy=0;" parent="WIyWlLk6GJQsqaUBKTNV-1" source="6CmqtewHcJsue7-G7mei-65" target="6CmqtewHcJsue7-G7mei-71" edge="1">
          <mxGeometry width="160" relative="1" as="geometry">
            <mxPoint x="-860" y="-2107" as="sourcePoint" />
            <mxPoint x="-517" y="-2186" as="targetPoint" />
          </mxGeometry>
        </mxCell>
        <mxCell id="6CmqtewHcJsue7-G7mei-111" value="Include" style="endArrow=open;endSize=12;dashed=1;html=1;rounded=0;exitX=1;exitY=0.3333333333333333;exitDx=0;exitDy=0;exitPerimeter=0;entryX=0;entryY=0.5;entryDx=0;entryDy=0;" parent="WIyWlLk6GJQsqaUBKTNV-1" source="6CmqtewHcJsue7-G7mei-65" target="6CmqtewHcJsue7-G7mei-72" edge="1">
          <mxGeometry width="160" relative="1" as="geometry">
            <mxPoint x="-880" y="-1567" as="sourcePoint" />
            <mxPoint x="-580" y="-1730" as="targetPoint" />
          </mxGeometry>
        </mxCell>
        <mxCell id="6CmqtewHcJsue7-G7mei-112" value="Include" style="endArrow=open;endSize=12;dashed=1;html=1;rounded=0;exitX=1;exitY=0.3333333333333333;exitDx=0;exitDy=0;exitPerimeter=0;entryX=0;entryY=0.5;entryDx=0;entryDy=0;" parent="WIyWlLk6GJQsqaUBKTNV-1" source="6CmqtewHcJsue7-G7mei-66" target="6CmqtewHcJsue7-G7mei-70" edge="1">
          <mxGeometry width="160" relative="1" as="geometry">
            <mxPoint x="-870" y="-1557" as="sourcePoint" />
            <mxPoint x="-570" y="-1720" as="targetPoint" />
          </mxGeometry>
        </mxCell>
        <mxCell id="6CmqtewHcJsue7-G7mei-113" value="Include" style="endArrow=open;endSize=12;dashed=1;html=1;rounded=0;entryX=0;entryY=0.5;entryDx=0;entryDy=0;exitX=1;exitY=0.3333333333333333;exitDx=0;exitDy=0;exitPerimeter=0;" parent="WIyWlLk6GJQsqaUBKTNV-1" source="6CmqtewHcJsue7-G7mei-66" target="6CmqtewHcJsue7-G7mei-68" edge="1">
          <mxGeometry width="160" relative="1" as="geometry">
            <mxPoint x="-890" y="-1010" as="sourcePoint" />
            <mxPoint x="-570" y="-1088" as="targetPoint" />
          </mxGeometry>
        </mxCell>
        <mxCell id="6CmqtewHcJsue7-G7mei-114" value="Include" style="endArrow=open;endSize=12;dashed=1;html=1;rounded=0;exitX=1;exitY=0.3333333333333333;exitDx=0;exitDy=0;exitPerimeter=0;entryX=0;entryY=0.5;entryDx=0;entryDy=0;" parent="WIyWlLk6GJQsqaUBKTNV-1" source="6CmqtewHcJsue7-G7mei-66" target="6CmqtewHcJsue7-G7mei-69" edge="1">
          <mxGeometry width="160" relative="1" as="geometry">
            <mxPoint x="-870" y="-987" as="sourcePoint" />
            <mxPoint x="-560" y="-1078" as="targetPoint" />
          </mxGeometry>
        </mxCell>
        <mxCell id="6CmqtewHcJsue7-G7mei-115" value="Include" style="endArrow=open;endSize=12;dashed=1;html=1;rounded=0;exitX=0;exitY=0.3333333333333333;exitDx=0;exitDy=0;exitPerimeter=0;entryX=1;entryY=0.5;entryDx=0;entryDy=0;" parent="WIyWlLk6GJQsqaUBKTNV-1" source="6CmqtewHcJsue7-G7mei-67" target="6CmqtewHcJsue7-G7mei-88" edge="1">
          <mxGeometry width="160" relative="1" as="geometry">
            <mxPoint x="-860" y="-977" as="sourcePoint" />
            <mxPoint x="-550" y="-1068" as="targetPoint" />
          </mxGeometry>
        </mxCell>
        <mxCell id="6CmqtewHcJsue7-G7mei-116" value="Include" style="endArrow=open;endSize=12;dashed=1;html=1;rounded=0;exitX=0;exitY=0.3333333333333333;exitDx=0;exitDy=0;exitPerimeter=0;entryX=1.011;entryY=0.468;entryDx=0;entryDy=0;entryPerimeter=0;" parent="WIyWlLk6GJQsqaUBKTNV-1" source="6CmqtewHcJsue7-G7mei-67" target="6CmqtewHcJsue7-G7mei-86" edge="1">
          <mxGeometry width="160" relative="1" as="geometry">
            <mxPoint x="1950" y="-997" as="sourcePoint" />
            <mxPoint x="1740" y="-1139" as="targetPoint" />
          </mxGeometry>
        </mxCell>
        <mxCell id="6CmqtewHcJsue7-G7mei-117" value="Include" style="endArrow=open;endSize=12;dashed=1;html=1;rounded=0;entryX=1;entryY=0.5;entryDx=0;entryDy=0;exitX=0;exitY=0.3333333333333333;exitDx=0;exitDy=0;exitPerimeter=0;" parent="WIyWlLk6GJQsqaUBKTNV-1" source="6CmqtewHcJsue7-G7mei-67" target="6CmqtewHcJsue7-G7mei-87" edge="1">
          <mxGeometry width="160" relative="1" as="geometry">
            <mxPoint x="1950" y="-997" as="sourcePoint" />
            <mxPoint x="1742" y="-973" as="targetPoint" />
          </mxGeometry>
        </mxCell>
        <mxCell id="6CmqtewHcJsue7-G7mei-118" value="Include" style="endArrow=open;endSize=12;dashed=1;html=1;rounded=0;entryX=1;entryY=0.5;entryDx=0;entryDy=0;exitX=0;exitY=0.3333333333333333;exitDx=0;exitDy=0;exitPerimeter=0;" parent="WIyWlLk6GJQsqaUBKTNV-1" source="6CmqtewHcJsue7-G7mei-67" target="6CmqtewHcJsue7-G7mei-74" edge="1">
          <mxGeometry width="160" relative="1" as="geometry">
            <mxPoint x="1940" y="-1000" as="sourcePoint" />
            <mxPoint x="1740" y="-799" as="targetPoint" />
          </mxGeometry>
        </mxCell>
        <mxCell id="6CmqtewHcJsue7-G7mei-119" value="Include" style="endArrow=open;endSize=12;dashed=1;html=1;rounded=0;exitX=0;exitY=0.3333333333333333;exitDx=0;exitDy=0;exitPerimeter=0;entryX=1;entryY=0.5;entryDx=0;entryDy=0;" parent="WIyWlLk6GJQsqaUBKTNV-1" source="6CmqtewHcJsue7-G7mei-59" target="6CmqtewHcJsue7-G7mei-61" edge="1">
          <mxGeometry width="160" relative="1" as="geometry">
            <mxPoint x="1930" y="-1738" as="sourcePoint" />
            <mxPoint x="1720" y="-1880" as="targetPoint" />
          </mxGeometry>
        </mxCell>
        <mxCell id="6CmqtewHcJsue7-G7mei-120" value="Include" style="endArrow=open;endSize=12;dashed=1;html=1;rounded=0;exitX=0;exitY=0.3333333333333333;exitDx=0;exitDy=0;exitPerimeter=0;entryX=1;entryY=0.5;entryDx=0;entryDy=0;" parent="WIyWlLk6GJQsqaUBKTNV-1" source="6CmqtewHcJsue7-G7mei-59" target="6CmqtewHcJsue7-G7mei-60" edge="1">
          <mxGeometry width="160" relative="1" as="geometry">
            <mxPoint x="2030" y="-2117" as="sourcePoint" />
            <mxPoint x="1844" y="-1974" as="targetPoint" />
          </mxGeometry>
        </mxCell>
      </root>
    </mxGraphModel>
  </diagram>
</mxfile>
